<svg xmlns="http://www.w3.org/2000/svg" viewBox="0 0 788.12 103.92"><defs><style>.a{fill:#363545;}.b{fill:#005f9e;}</style></defs><title>Primary - Group - Reversed copy</title><path class="a" d="M148,84.92V28.76H127.43V18.32h52.29V28.76H159.2V84.92Z"/><path class="a" d="M178.05,84.92V37.13h11.07V45h.18c3-4.77,8.1-8.73,17.19-8.73h.72l-.36,10.17c-.54-.09-2.34-.18-3-.18-7.11,0-11.61,3.33-14.76,8.46V84.92Z"/><path class="a" d="M213.12,28.85V19.22h11.34v9.63Zm.09,56.07V37.13h11.16V84.92Z"/><path class="a" d="M234.73,84.92V37.13h11.06V43.7a21.75,21.75,0,0,1,16.38-7.47c8,0,11.16,3.15,13.05,7.83A22.65,22.65,0,0,1,292,36.23c9.72,0,14,5.85,14,14.4V84.92H294.84V53.42c0-5.31-1.53-7.74-6.75-7.74-4.5,0-8.1,2.52-12.24,6.21v33H264.78V53.42c0-5.31-1.53-7.74-6.75-7.74-4.41,0-8.1,2.52-12.24,6.21v33Z"/><path class="a" d="M327.16,79.61v5.31H316.09V18.32h11.07V43.43a19.3,19.3,0,0,1,15.21-7.2c10.89,0,18.9,8.19,18.9,24.75s-8.19,24.66-20.43,24.66A18.22,18.22,0,0,1,327.16,79.61Zm23-18.54c0-10.08-4.32-15.39-11.43-15.39-4.59,0-9,2.88-11.61,6V70.88a14.58,14.58,0,0,0,11.25,5.94C346.78,76.82,350.2,71.69,350.2,61.07Z"/><path class="a" d="M369.58,84.92V18.32h11.16v66.6Z"/><path class="a" d="M388.71,61.07c0-18.18,12.87-24.84,22.77-24.84,10.71,0,21,6.39,21,25.83v2.61H399.78c.45,8.64,5.76,12.42,12.78,12.42,6.21,0,9.81-2.07,13.41-5.58l5.85,5.76c-4.95,5.49-11.52,8.64-20.07,8.64C399.78,85.91,388.71,78.62,388.71,61.07Zm33.57-4.68c-.63-7.29-4.23-11.16-10.89-11.16C406,45.23,401,48.29,400,56.39Z"/><path class="a" d="M459.37,51.35c0-20.16,11.07-34.29,27.72-34.29,13.5,0,21,8,24.11,20.34l-6.11,1.53c-3-10.53-7.92-16-18.09-16-12.87,0-21.24,11.16-21.24,28.26,0,18.45,8.46,29.25,21.42,29.25,9.9,0,16.11-5.76,19-16.92l6.11,1.35C509.05,78,500.41,86.18,487.09,86.18,470.26,86.18,459.37,72.59,459.37,51.35Z"/><path class="a" d="M519.94,61.25c0-15.84,9.81-24.66,21.51-24.66s21.41,8.82,21.41,24.66-9.8,24.66-21.41,24.66S519.94,77,519.94,61.25Zm36.72-.09c0-10.35-5.22-19.26-15.21-19.26-9.63,0-15.3,8.1-15.3,19.26,0,10.53,5.13,19.44,15.3,19.44C551,80.6,556.66,72.59,556.66,61.16Z"/><path class="a" d="M572.42,37.49h6.21V45c4.59-4.5,10.62-8.37,18.09-8.37,9.36,0,14.13,5.22,14.13,14V84.92h-6.21V51.8c0-6.66-3-9.9-9.45-9.9-6.12,0-11.25,3.15-16.56,8.28V84.92h-6.21Z"/><path class="a" d="M622.63,37.49h6.21V45c4.59-4.5,10.62-8.37,18.09-8.37,9.36,0,14.13,5.22,14.13,14V84.92h-6.21V51.8c0-6.66-3-9.9-9.45-9.9-6.12,0-11.25,3.15-16.56,8.28V84.92h-6.21Z"/><path class="a" d="M670.38,61.16c0-16.83,10.8-24.57,20.79-24.57,11.07,0,19.35,8.46,19.35,24.66v1.17H676.59c.09,11.7,6.75,18.27,14.94,18.27,7.11,0,11.16-3.06,14.76-8.64l3.87,3.06c-4.14,6.66-10,10.8-19,10.8C680.1,85.91,670.38,77.36,670.38,61.16Zm34.11-3.69c-.63-9-5-15.66-13.41-15.66-6.84,0-13.23,4.95-14.4,15.66Z"/><path class="a" d="M717.74,61.25c0-17,10.53-24.66,21.15-24.66,10.16,0,15.2,6,18.17,13l-5.31,2.34c-2.61-6.39-6.38-10-13-10-7,0-14.75,5-14.75,19.26,0,12.42,6.3,19.44,14.58,19.44,6.56,0,10.25-3.06,13.59-10.08l5,2.16c-3.78,8-9.27,13.23-18.89,13.23C727.37,85.91,717.74,77,717.74,61.25Z"/><path class="a" d="M769.49,73.85v-31h-8.28V37.49h8.28v-17h6.21v17H788V42.8H775.7V72.59c0,5,1.62,7.74,7.47,7.74a16.53,16.53,0,0,0,5-.63V85a37.66,37.66,0,0,1-6.12.54C772.91,85.55,769.49,82,769.49,73.85Z"/><polygon class="b" points="45 0 90 25.98 90 43.3 70 54.85 70 37.53 25 11.55 45 0"/><polygon class="b" points="90 77.94 45 103.92 30 95.27 30 72.17 45 80.83 90 54.85 90 77.94"/><polygon class="b" points="0 77.94 0 25.98 15 17.32 35 28.87 20 37.53 20 89.49 0 77.94"/></svg>