<svg width="1314" height="184" viewBox="0 0 1314 184" fill="none" xmlns="http://www.w3.org/2000/svg">
<path opacity="0.2" d="M180.97 444.296L16.3009 148.911C-1.88968 116.28 -2.77738 76.7674 13.9298 43.353L279.991 -488.769L278.202 -489.664L12.1407 42.4585C-4.86212 76.4642 -3.95863 116.676 14.5538 149.884L179.224 445.271L180.97 444.296ZM196.97 444.296L32.3009 148.911C14.1103 116.28 13.2226 76.7674 29.9298 43.353L295.991 -488.769L294.202 -489.664L28.1407 42.4585C11.1379 76.4642 12.0414 116.676 30.5538 149.884L195.224 445.271L196.97 444.296ZM212.97 444.296L48.3009 148.911C30.1103 116.28 29.2226 76.7674 45.9298 43.353L311.991 -488.769L310.202 -489.664L44.1407 42.4585C27.1379 76.4642 28.0414 116.676 46.5538 149.884L211.224 445.271L212.97 444.296ZM228.97 444.296L64.3009 148.911C46.1103 116.28 45.2226 76.7674 61.9298 43.353L327.991 -488.769L326.202 -489.664L60.1407 42.4585C43.1379 76.4642 44.0414 116.676 62.5538 149.884L227.224 445.271L228.97 444.296ZM244.97 444.296L80.3009 148.911C62.1103 116.28 61.2226 76.7674 77.9298 43.353L343.991 -488.769L342.202 -489.664L76.1407 42.4585C59.1379 76.4642 60.0414 116.676 78.5538 149.884L243.224 445.271L244.97 444.296ZM260.97 444.296L96.3009 148.911C78.1103 116.28 77.2226 76.7674 93.9298 43.353L359.991 -488.769L358.202 -489.664L92.1407 42.4585C75.1379 76.4642 76.0414 116.676 94.5538 149.884L259.224 445.271L260.97 444.296ZM276.97 444.296L112.301 148.911C94.1103 116.28 93.2226 76.7674 109.93 43.353L375.991 -488.769L374.202 -489.664L108.141 42.4585C91.1379 76.4642 92.0414 116.676 110.554 149.884L275.224 445.271L276.97 444.296ZM292.97 444.296L128.301 148.911C110.11 116.28 109.223 76.7674 125.93 43.353L391.991 -488.769L390.202 -489.664L124.141 42.4585C107.138 76.4642 108.041 116.676 126.554 149.884L291.224 445.271L292.97 444.296ZM308.97 444.296L144.301 148.911C126.11 116.28 125.223 76.7674 141.93 43.353L407.991 -488.769L406.202 -489.664L140.141 42.4585C123.138 76.4642 124.041 116.676 142.554 149.884L307.224 445.271L308.97 444.296ZM324.97 444.296L160.301 148.911C142.11 116.28 141.223 76.7674 157.93 43.353L423.991 -488.769L422.202 -489.664L156.141 42.4585C139.138 76.4642 140.041 116.676 158.554 149.884L323.224 445.271L324.97 444.296ZM340.97 444.296L176.301 148.911C158.11 116.28 157.223 76.7674 173.93 43.353L439.991 -488.769L438.202 -489.664L172.141 42.4585C155.138 76.4642 156.041 116.676 174.554 149.884L339.224 445.271L340.97 444.296ZM356.97 444.296L192.301 148.911C174.11 116.28 173.223 76.7674 189.93 43.353L455.991 -488.769L454.202 -489.664L188.141 42.4585C171.138 76.4642 172.041 116.676 190.554 149.884L355.224 445.271L356.97 444.296ZM372.97 444.296L208.301 148.911C190.11 116.28 189.223 76.7674 205.93 43.353L471.991 -488.769L470.202 -489.664L204.141 42.4585C187.138 76.4642 188.041 116.676 206.554 149.884L371.224 445.271L372.97 444.296ZM388.97 444.296L224.301 148.911C206.11 116.28 205.223 76.7674 221.93 43.353L487.991 -488.769L486.202 -489.664L220.141 42.4585C203.138 76.4642 204.041 116.676 222.554 149.884L387.224 445.271L388.97 444.296ZM404.97 444.296L240.301 148.911C222.11 116.28 221.223 76.7674 237.93 43.353L503.991 -488.769L502.202 -489.664L236.141 42.4585C219.138 76.4642 220.041 116.676 238.554 149.884L403.224 445.271L404.97 444.296ZM420.97 444.296L256.301 148.911C238.11 116.28 237.223 76.7674 253.93 43.353L519.991 -488.769L518.202 -489.664L252.141 42.4585C235.138 76.4642 236.041 116.676 254.554 149.884L419.224 445.271L420.97 444.296ZM436.97 444.296L272.301 148.911C254.11 116.28 253.223 76.7674 269.93 43.353L535.991 -488.769L534.202 -489.664L268.141 42.4585C251.138 76.4642 252.041 116.676 270.554 149.884L435.224 445.271L436.97 444.296ZM452.97 444.296L288.301 148.911C270.11 116.28 269.223 76.7674 285.93 43.353L551.991 -488.769L550.202 -489.664L284.141 42.4585C267.138 76.4642 268.041 116.676 286.554 149.884L451.224 445.271L452.97 444.296ZM484.97 444.296L320.301 148.911C302.11 116.28 301.223 76.7674 317.93 43.353L583.991 -488.769L582.202 -489.664L316.141 42.4585C299.138 76.4642 300.041 116.676 318.554 149.884L483.224 445.271L484.97 444.296ZM500.97 444.296L336.301 148.911C318.11 116.28 317.223 76.7674 333.93 43.353L599.991 -488.769L598.202 -489.664L332.141 42.4585C315.138 76.4642 316.041 116.676 334.554 149.884L499.224 445.271L500.97 444.296ZM516.97 444.296L352.301 148.911C334.11 116.28 333.223 76.7674 349.93 43.353L615.991 -488.769L614.202 -489.664L348.141 42.4585C331.138 76.4642 332.041 116.676 350.554 149.884L515.224 445.271L516.97 444.296ZM532.97 444.296L368.301 148.911C350.11 116.28 349.223 76.7674 365.93 43.353L631.991 -488.769L630.202 -489.664L364.141 42.4585C347.138 76.4642 348.041 116.676 366.554 149.884L531.224 445.271L532.97 444.296ZM548.97 444.296L384.301 148.911C366.11 116.28 365.223 76.7674 381.93 43.353L647.991 -488.769L646.202 -489.664L380.141 42.4585C363.138 76.4642 364.041 116.676 382.554 149.884L547.224 445.271L548.97 444.296ZM564.97 444.296L400.301 148.911C382.11 116.28 381.223 76.7674 397.93 43.353L663.991 -488.769L662.202 -489.664L396.141 42.4585C379.138 76.4642 380.041 116.676 398.554 149.884L563.224 445.271L564.97 444.296ZM580.97 444.296L416.301 148.911C398.11 116.28 397.223 76.7674 413.93 43.353L679.991 -488.769L678.202 -489.664L412.141 42.4585C395.138 76.4642 396.041 116.676 414.554 149.884L579.224 445.271L580.97 444.296ZM596.97 444.296L432.301 148.911C414.11 116.28 413.223 76.7674 429.93 43.353L695.991 -488.769L694.202 -489.664L428.141 42.4585C411.138 76.4642 412.041 116.676 430.554 149.884L595.224 445.271L596.97 444.296ZM612.97 444.296L448.301 148.911C430.11 116.28 429.223 76.7674 445.93 43.353L711.991 -488.769L710.202 -489.664L444.141 42.4585C427.138 76.4642 428.041 116.676 446.554 149.884L611.224 445.271L612.97 444.296ZM628.97 444.296L464.301 148.911C446.11 116.28 445.223 76.7674 461.93 43.353L727.991 -488.769L726.202 -489.664L460.141 42.4585C443.138 76.4642 444.041 116.676 462.554 149.884L627.224 445.271L628.97 444.296ZM644.97 444.296L480.301 148.911C462.11 116.28 461.223 76.7674 477.93 43.353L743.991 -488.769L742.202 -489.664L476.141 42.4585C459.138 76.4642 460.041 116.676 478.554 149.884L643.224 445.271L644.97 444.296ZM660.97 444.296L496.301 148.911C478.11 116.28 477.223 76.7674 493.93 43.353L759.991 -488.769L758.202 -489.664L492.141 42.4585C475.138 76.4642 476.041 116.676 494.554 149.884L659.224 445.271L660.97 444.296ZM676.97 444.296L512.301 148.911C494.11 116.28 493.223 76.7674 509.93 43.353L775.991 -488.769L774.202 -489.664L508.141 42.4585C491.138 76.4642 492.041 116.676 510.554 149.884L675.224 445.271L676.97 444.296ZM692.97 444.296L528.301 148.911C510.11 116.28 509.223 76.7674 525.93 43.353L791.991 -488.769L790.202 -489.664L524.141 42.4585C507.138 76.4642 508.041 116.676 526.554 149.884L691.224 445.271L692.97 444.296ZM708.97 444.296L544.301 148.911C526.11 116.28 525.223 76.7674 541.93 43.353L807.991 -488.769L806.202 -489.664L540.141 42.4585C523.138 76.4642 524.041 116.676 542.554 149.884L707.224 445.271L708.97 444.296ZM724.97 444.296L560.301 148.911C542.11 116.28 541.223 76.7674 557.93 43.353L823.991 -488.769L822.202 -489.664L556.141 42.4585C539.138 76.4642 540.041 116.676 558.554 149.884L723.224 445.271L724.97 444.296ZM740.97 444.296L576.301 148.911C558.11 116.28 557.223 76.7674 573.93 43.353L839.991 -488.769L838.202 -489.664L572.141 42.4585C555.138 76.4642 556.041 116.676 574.554 149.884L739.224 445.271L740.97 444.296ZM756.97 444.296L592.301 148.911C574.11 116.28 573.223 76.7674 589.93 43.353L855.991 -488.769L854.202 -489.664L588.141 42.4585C571.138 76.4642 572.041 116.676 590.554 149.884L755.224 445.271L756.97 444.296ZM772.97 444.296L608.301 148.911C590.11 116.28 589.223 76.7674 605.93 43.353L871.991 -488.769L870.202 -489.664L604.141 42.4585C587.138 76.4642 588.041 116.676 606.554 149.884L771.224 445.271L772.97 444.296ZM788.97 444.296L624.301 148.911C606.11 116.28 605.223 76.7674 621.93 43.353L887.991 -488.769L886.202 -489.664L620.141 42.4585C603.138 76.4642 604.041 116.676 622.554 149.884L787.224 445.271L788.97 444.296ZM804.97 444.296L640.301 148.911C622.11 116.28 621.223 76.7674 637.93 43.353L903.991 -488.769L902.202 -489.664L636.141 42.4585C619.138 76.4642 620.041 116.676 638.554 149.884L803.224 445.271L804.97 444.296ZM820.97 444.296L656.301 148.911C638.11 116.28 637.223 76.7674 653.93 43.353L919.991 -488.769L918.202 -489.664L652.141 42.4585C635.138 76.4642 636.041 116.676 654.554 149.884L819.224 445.271L820.97 444.296ZM836.97 444.296L672.301 148.911C654.11 116.28 653.223 76.7674 669.93 43.353L935.991 -488.769L934.202 -489.664L668.141 42.4585C651.138 76.4642 652.041 116.676 670.554 149.884L835.224 445.271L836.97 444.296ZM852.97 444.296L688.301 148.911C670.11 116.28 669.223 76.7674 685.93 43.353L951.991 -488.769L950.202 -489.664L684.141 42.4585C667.138 76.4642 668.041 116.676 686.554 149.884L851.224 445.271L852.97 444.296ZM868.97 444.296L704.301 148.911C686.11 116.28 685.223 76.7674 701.93 43.353L967.991 -488.769L966.202 -489.664L700.141 42.4585C683.138 76.4642 684.041 116.676 702.554 149.884L867.224 445.271L868.97 444.296ZM884.97 444.296L720.301 148.911C702.11 116.28 701.223 76.7674 717.93 43.353L983.991 -488.769L982.202 -489.664L716.141 42.4585C699.138 76.4642 700.041 116.676 718.554 149.884L883.224 445.271L884.97 444.296ZM900.97 444.296L736.301 148.911C718.11 116.28 717.223 76.7674 733.93 43.353L999.991 -488.769L998.202 -489.664L732.141 42.4585C715.138 76.4642 716.041 116.676 734.554 149.884L899.224 445.271L900.97 444.296ZM916.97 444.296L752.301 148.911C734.11 116.28 733.223 76.7674 749.93 43.353L1015.99 -488.769L1014.2 -489.664L748.141 42.4585C731.138 76.4642 732.041 116.676 750.554 149.884L915.224 445.271L916.97 444.296ZM932.97 444.296L768.301 148.911C750.11 116.28 749.223 76.7674 765.93 43.353L1031.99 -488.769L1030.2 -489.664L764.141 42.4585C747.138 76.4642 748.041 116.676 766.554 149.884L931.224 445.271L932.97 444.296ZM948.97 444.296L784.301 148.911C766.11 116.28 765.223 76.7674 781.93 43.353L1047.99 -488.769L1046.2 -489.664L780.141 42.4585C763.138 76.4642 764.041 116.676 782.554 149.884L947.224 445.271L948.97 444.296ZM964.97 444.296L800.301 148.911C782.11 116.28 781.223 76.7674 797.93 43.353L1063.99 -488.769L1062.2 -489.664L796.141 42.4585C779.138 76.4642 780.041 116.676 798.554 149.884L963.224 445.271L964.97 444.296ZM980.97 444.296L816.301 148.911C798.11 116.28 797.223 76.7674 813.93 43.353L1079.99 -488.769L1078.2 -489.664L812.141 42.4585C795.138 76.4642 796.041 116.676 814.554 149.884L979.224 445.271L980.97 444.296ZM996.97 444.296L832.301 148.911C814.11 116.28 813.223 76.7674 829.93 43.353L1095.99 -488.769L1094.2 -489.664L828.141 42.4585C811.138 76.4642 812.041 116.676 830.554 149.884L995.224 445.271L996.97 444.296ZM1012.97 444.296L848.301 148.911C830.11 116.28 829.223 76.7674 845.93 43.353L1111.99 -488.769L1110.2 -489.664L844.141 42.4585C827.138 76.4642 828.041 116.676 846.554 149.884L1011.22 445.271L1012.97 444.296ZM1028.97 444.296L864.301 148.911C846.11 116.28 845.223 76.7674 861.93 43.353L1127.99 -488.769L1126.2 -489.664L860.141 42.4585C843.138 76.4642 844.041 116.676 862.554 149.884L1027.22 445.271L1028.97 444.296ZM1044.97 444.296L880.301 148.911C862.11 116.28 861.223 76.7674 877.93 43.353L1143.99 -488.769L1142.2 -489.664L876.141 42.4585C859.138 76.4642 860.041 116.676 878.554 149.884L1043.22 445.271L1044.97 444.296ZM1060.97 444.296L896.301 148.911C878.11 116.28 877.223 76.7674 893.93 43.353L1159.99 -488.769L1158.2 -489.664L892.141 42.4585C875.138 76.4642 876.041 116.676 894.554 149.884L1059.22 445.271L1060.97 444.296ZM1076.97 444.296L912.301 148.911C894.11 116.28 893.223 76.7674 909.93 43.353L1175.99 -488.769L1174.2 -489.664L908.141 42.4585C891.138 76.4642 892.041 116.676 910.554 149.884L1075.22 445.271L1076.97 444.296ZM1092.97 444.296L928.301 148.911C910.11 116.28 909.223 76.7674 925.93 43.353L1191.99 -488.769L1190.2 -489.664L924.141 42.4585C907.138 76.4642 908.041 116.676 926.554 149.884L1091.22 445.271L1092.97 444.296ZM1108.97 444.296L944.301 148.911C926.11 116.28 925.223 76.7674 941.93 43.353L1207.99 -488.769L1206.2 -489.664L940.141 42.4585C923.138 76.4642 924.041 116.676 942.554 149.884L1107.22 445.271L1108.97 444.296ZM1124.97 444.296L960.301 148.911C942.11 116.28 941.223 76.7674 957.93 43.353L1223.99 -488.769L1222.2 -489.664L956.141 42.4585C939.138 76.4642 940.041 116.676 958.554 149.884L1123.22 445.271L1124.97 444.296ZM1140.97 444.296L976.301 148.911C958.11 116.28 957.223 76.7674 973.93 43.353L1239.99 -488.769L1238.2 -489.664L972.141 42.4585C955.138 76.4642 956.041 116.676 974.554 149.884L1139.22 445.271L1140.97 444.296ZM1156.97 444.296L992.301 148.911C974.11 116.28 973.223 76.7674 989.93 43.353L1255.99 -488.769L1254.2 -489.664L988.141 42.4585C971.138 76.4642 972.041 116.676 990.554 149.884L1155.22 445.271L1156.97 444.296ZM1172.97 444.296L1008.3 148.911C990.11 116.28 989.223 76.7674 1005.93 43.353L1271.99 -488.769L1270.2 -489.664L1004.14 42.4585C987.138 76.4642 988.041 116.676 1006.55 149.884L1171.22 445.271L1172.97 444.296ZM1188.97 444.296L1024.3 148.911C1006.11 116.28 1005.22 76.7674 1021.93 43.353L1287.99 -488.769L1286.2 -489.664L1020.14 42.4585C1003.14 76.4642 1004.04 116.676 1022.55 149.884L1187.22 445.271L1188.97 444.296ZM1204.97 444.296L1040.3 148.911C1022.11 116.28 1021.22 76.7674 1037.93 43.353L1303.99 -488.769L1302.2 -489.664L1036.14 42.4585C1019.14 76.4642 1020.04 116.676 1038.55 149.884L1203.22 445.271L1204.97 444.296ZM1220.97 444.296L1056.3 148.911C1038.11 116.28 1037.22 76.7674 1053.93 43.353L1319.99 -488.769L1318.2 -489.664L1052.14 42.4585C1035.14 76.4642 1036.04 116.676 1054.55 149.884L1219.22 445.271L1220.97 444.296ZM1236.97 444.296L1072.3 148.911C1054.11 116.28 1053.22 76.7674 1069.93 43.353L1335.99 -488.769L1334.2 -489.664L1068.14 42.4585C1051.14 76.4642 1052.04 116.676 1070.55 149.884L1235.22 445.271L1236.97 444.296ZM1252.97 444.296L1088.3 148.911C1070.11 116.28 1069.22 76.7674 1085.93 43.353L1351.99 -488.769L1350.2 -489.664L1084.14 42.4585C1067.14 76.4642 1068.04 116.676 1086.55 149.884L1251.22 445.271L1252.97 444.296ZM1268.97 444.296L1104.3 148.911C1086.11 116.28 1085.22 76.7674 1101.93 43.353L1367.99 -488.769L1366.2 -489.664L1100.14 42.4585C1083.14 76.4642 1084.04 116.676 1102.55 149.884L1267.22 445.271L1268.97 444.296ZM1284.97 444.296L1120.3 148.911C1102.11 116.28 1101.22 76.7674 1117.93 43.353L1383.99 -488.769L1382.2 -489.664L1116.14 42.4585C1099.14 76.4642 1100.04 116.676 1118.55 149.884L1283.22 445.271L1284.97 444.296ZM1300.97 444.296L1136.3 148.911C1118.11 116.28 1117.22 76.7674 1133.93 43.353L1399.99 -488.769L1398.2 -489.664L1132.14 42.4585C1115.14 76.4642 1116.04 116.676 1134.55 149.884L1299.22 445.271L1300.97 444.296ZM1316.97 444.296L1152.3 148.911C1134.11 116.28 1133.22 76.7674 1149.93 43.353L1415.99 -488.769L1414.2 -489.664L1148.14 42.4585C1131.14 76.4642 1132.04 116.676 1150.55 149.884L1315.22 445.271L1316.97 444.296ZM1332.97 444.296L1168.3 148.911C1150.11 116.28 1149.22 76.7674 1165.93 43.353L1431.99 -488.769L1430.2 -489.664L1164.14 42.4585C1147.14 76.4642 1148.04 116.676 1166.55 149.884L1331.22 445.271L1332.97 444.296ZM1348.97 444.296L1184.3 148.911C1166.11 116.28 1165.22 76.7674 1181.93 43.353L1447.99 -488.769L1446.2 -489.664L1180.14 42.4585C1163.14 76.4642 1164.04 116.676 1182.55 149.884L1347.22 445.271L1348.97 444.296ZM1364.97 444.296L1200.3 148.911C1182.11 116.28 1181.22 76.7674 1197.93 43.353L1463.99 -488.769L1462.2 -489.664L1196.14 42.4585C1179.14 76.4642 1180.04 116.676 1198.55 149.884L1363.22 445.271L1364.97 444.296ZM1380.97 444.296L1216.3 148.911C1198.11 116.28 1197.22 76.7674 1213.93 43.353L1479.99 -488.769L1478.2 -489.664L1212.14 42.4585C1195.14 76.4642 1196.04 116.676 1214.55 149.884L1379.22 445.271L1380.97 444.296ZM1396.97 444.296L1232.3 148.911C1214.11 116.28 1213.22 76.7674 1229.93 43.353L1495.99 -488.769L1494.2 -489.664L1228.14 42.4585C1211.14 76.4642 1212.04 116.676 1230.55 149.884L1395.22 445.271L1396.97 444.296ZM1412.97 444.296L1248.3 148.911C1230.11 116.28 1229.22 76.7674 1245.93 43.353L1511.99 -488.769L1510.2 -489.664L1244.14 42.4585C1227.14 76.4642 1228.04 116.676 1246.55 149.884L1411.22 445.271L1412.97 444.296ZM1428.97 444.296L1264.3 148.911C1246.11 116.28 1245.22 76.7674 1261.93 43.353L1527.99 -488.769L1526.2 -489.664L1260.14 42.4585C1243.14 76.4642 1244.04 116.676 1262.55 149.884L1427.22 445.271L1428.97 444.296ZM1444.97 444.296L1280.3 148.911C1262.11 116.28 1261.22 76.7674 1277.93 43.353L1543.99 -488.769L1542.2 -489.664L1276.14 42.4585C1259.14 76.4642 1260.04 116.676 1278.55 149.884L1443.22 445.271L1444.97 444.296ZM1460.97 444.296L1296.3 148.911C1278.11 116.28 1277.22 76.7674 1293.93 43.353L1559.99 -488.769L1558.2 -489.664L1292.14 42.4585C1275.14 76.4642 1276.04 116.676 1294.55 149.884L1459.22 445.271L1460.97 444.296ZM1476.97 444.296L1312.3 148.911C1294.11 116.28 1293.22 76.7674 1309.93 43.353L1575.99 -488.769L1574.2 -489.664L1308.14 42.4585C1291.14 76.4642 1292.04 116.676 1310.55 149.884L1475.22 445.271L1476.97 444.296ZM1492.97 444.296L1328.3 148.911C1310.11 116.28 1309.22 76.7674 1325.93 43.353L1591.99 -488.769L1590.2 -489.664L1324.14 42.4585C1307.14 76.4642 1308.04 116.676 1326.55 149.884L1491.22 445.271L1492.97 444.296Z" fill="url(#paint0_radial_248_17934)"/>
<defs>
<radialGradient id="paint0_radial_248_17934" cx="0" cy="0" r="1" gradientUnits="userSpaceOnUse" gradientTransform="translate(1367.5 163.304) rotate(-109.292) scale(655.298 298.982)">
<stop stop-opacity="0"/>
<stop offset="0.28" stop-color="#0F1213" stop-opacity="0.635258"/>
<stop offset="0.695" stop-color="#171C1E"/>
<stop offset="1" stop-opacity="0"/>
</radialGradient>
</defs>
</svg>